<svg version="1.2" xmlns="http://www.w3.org/2000/svg" viewBox="0 0 1024 1024" width="1024" height="1024">
	<defs>
		<filter x="-50%" y="-50%" width="200%" height="200%" id="f1" ><feDropShadow dx="0" dy="0" stdDeviation="21.25" flood-color="#0d6c9c" flood-opacity=".6"/></filter>
	</defs>
	<style>
		.s0 { filter: url(#f1);fill: #ffffff } 
	</style>
	<path class="s0" d="m333.86 142.36c47.47-0.26 90.52 3.07 126.52 38.01 21.72 24.28 31.04 51.67 30.81 83.97 0.02 3.83 0.02 3.83 0.05 7.74q0.05 12.73 0.01 25.46 0.02 9.17 0.07 18.34 0.08 22.25 0.05 44.5-0.01 18.08 0.02 36.16 0.01 2.57 0.01 5.21 0.01 5.25 0.02 10.49 0.06 49.06 0.01 98.13-0.03 44.86 0.11 89.73 0.13 46.13 0.11 92.25-0.02 25.88 0.07 51.75 0.08 22.01 0 44.02-0.04 11.23 0.03 22.45 0.05 12.17-0.05 24.34c0.03 2.36 0.06 4.72 0.1 7.15-0.2 13.47-2.12 21.18-11.47 31.08-13.53 10.18-33.85 8.07-49.89 7.92-2.37-0.02-4.75-0.04-7.2-0.06-73.28-1.03-133.6-24.28-187.25-74.69l-4.11-3.59c-34.77-31.76-56.13-82.95-61.08-129.04-0.42-9.42-0.52-18.82-0.57-28.24l-0.14-7.57c-0.07-14.89 0.25-26.17 10.9-37.58 14.54-11.12 25.58-11.43 43.76-9.79 6.01 2.28 8.64 4.53 13.49 8.99l3.93 2.81c8.92 12.48 7.8 29.76 8.01 44.4 1.25 36.25 11.75 63.05 33.02 92.17l3.35 4.74c18.8 24.25 51.97 43.84 82.07 49.21 18 2.3 18 2.3 34.07-3.72 5.27-6.7 5.28-10.28 5.29-18.74 0.04-4.14 0.04-4.15 0.08-8.37q-0.03-4.58-0.06-9.16 0.02-4.83 0.05-9.66 0.05-13.12-0.01-26.24-0.02-13.75 0.02-27.5 0.02-23.12-0.05-46.23-0.06-26.66 0.02-53.32 0.06-22.93 0.02-45.85-0.03-13.68 0.01-27.36 0.04-12.88-0.04-25.76-0.02-4.7 0.01-9.41c0.14-23.52-2.67-44.86-19.24-62.74-15.47-12.57-33.74-19.58-53.57-19.66-3.17-0.02-3.17-0.02-6.4-0.05-2.26-0.01-4.52-0.02-6.85-0.03q-7.27-0.07-14.55-0.16-11.39-0.12-22.78-0.17c-53.92-0.26-53.92-0.26-77.88-10.51-3.01-1.21-3.01-1.2-6.09-2.43-29.75-12.4-50.82-39.13-63.17-67.96-4.94-12.22-7.44-21.96-7.6-35.17-0.04-2.71-0.07-5.41-0.11-8.19q-0.16-18.47-0.25-36.95-0.04-9.74-0.18-19.49-0.16-11.8-0.18-23.6-0.05-6.65-0.18-13.3c0.05-22.46 0.05-22.46 6.6-30.75 7.49-6.2 12.69-7.47 22.1-7.51q2.86-0.02 5.8-0.04 3.12 0 6.34-0.01c3.31-0.02 3.31-0.01 6.69-0.03q10.99-0.05 21.99-0.06 7.66-0.02 15.32-0.04 16.09-0.04 32.18-0.05 20.52-0.02 41.04-0.13 15.84-0.05 31.68-0.05 7.56-0.01 15.12-0.06zm526.45-0.36c12.51 0.1 20.12 1.47 29.85 10.14 4.97 6.97 5.09 13.08 5.15 21.51 0.03 2.52 0.06 5.04 0.09 7.63 0 2.71 0.01 5.42 0.01 8.22 0.03 4.22 0.03 4.22 0.05 8.52q0.04 8.95 0.03 17.89 0 9.09 0.09 18.19 0.12 13.17 0.11 26.36c0.04 2.67 0.07 5.34 0.1 8.09-0.18 34.47-11.84 65.86-35.84 90.83-38.55 38.02-84.65 38.76-135.75 38.94q-10.5 0.06-20.99 0.19-3.15-0.01-6.4-0.02c-22.72 0.25-43.39 5.9-60.67 21.16-12.09 14.44-18.53 28.83-18.59 47.83-0.03 4.18-0.03 4.18-0.06 8.44q0.01 4.59 0.01 9.18-0.02 4.86-0.05 9.72-0.05 13.18-0.05 26.35 0 8.24-0.03 16.47-0.06 28.72-0.05 57.44 0 26.78-0.12 53.55-0.08 23-0.08 46 0.01 13.73-0.06 27.46-0.06 12.91-0.01 25.81 0.01 4.73-0.03 9.47-0.04 6.46 0.02 12.93c0 3.61 0 3.61-0.01 7.3 1.4 7.78 3.95 10.43 10.11 15.22 27.89 5.79 58.04-7.56 80.93-22.48 35.27-25.2 59.14-60.25 66.46-103.22 1.59-12.8 1.94-25.79 1.99-38.68 0.25-12.24 2.14-19.19 10.23-28.95 11.05-9.71 21.74-9.78 35.94-9.6 10.13 0.91 14.58 3.16 22.51 9.6 11.19 14.52 10.47 28.81 10.26 46.65l-0.08 8.81c-0.87 38.88-11.31 70.6-30.41 104.15l-3.71 6.7c-31.41 53.1-87.09 89.5-145.5 106.4-28.06 6.83-56.06 8.66-84.87 8.86l-6.53 0.06c-15.58-0.07-30.17-0.25-42.5-10.74-6.15-7.46-7.17-10.89-7.18-20.33-0.01-2.17-0.02-4.33-0.03-6.56 0.01-2.4 0.01-4.79 0.01-7.26-0.01-3.79-0.01-3.79-0.02-7.67q-0.03-12.8-0.03-25.61-0.01-9.15-0.03-18.3-0.04-24.92-0.05-49.84-0.01-15.57-0.03-31.13-0.05-43.1-0.06-86.19 0-2.75 0-5.58 0-2.75 0-5.59-0.01-5.6 0-11.21-0.01-2.76-0.01-5.61-0.01-45.02-0.1-90.04-0.08-46.22-0.08-92.44 0-25.95-0.06-51.9-0.05-22.1-0.02-44.21 0.01-11.28-0.03-22.55-0.04-12.24 0.01-24.49l-0.06-7.13c0.21-30.16 10.9-56.45 31.8-78.33 28.23-26.55 61.73-35.55 99.77-35.66q3.37-0.02 6.85-0.05 11.18-0.06 22.36-0.09c3.82-0.01 3.82-0.02 7.72-0.03q20.23-0.07 40.46-0.1 20.88-0.05 41.77-0.19 16.07-0.08 32.14-0.09 7.7-0.01 15.4-0.07 10.77-0.08 21.54-0.04 3.16-0.05 6.41-0.09z"/>
</svg>